<svg width="12" height="12" viewBox="0 0 12 12" xmlns="http://www.w3.org/2000/svg">
    <path d="M12 6C12 9.31444 9.31348 12 6 12C2.68652 12 0 9.31444 0 6C0 2.68749 2.68652 0 6 0C9.31348 0 12 2.68749 12 6ZM6 7.20968C5.38536 7.20968 4.8871 7.70794 4.8871 8.32258C4.8871 8.93722 5.38536 9.43548 6 9.43548C6.61464 9.43548 7.1129 8.93722 7.1129 8.32258C7.1129 7.70794 6.61464 7.20968 6 7.20968ZM4.9434 3.20937L5.12286 6.49969C5.13126 6.65366 5.25856 6.77419 5.41275 6.77419H6.58725C6.74144 6.77419 6.86874 6.65366 6.87714 6.49969L7.0566 3.20937C7.06568 3.04306 6.93327 2.90323 6.76672 2.90323H5.23326C5.06671 2.90323 4.93432 3.04306 4.9434 3.20937Z" fill="#D8D8D8"/>
</svg>
