<svg width="12" height="12" viewBox="0 0 12 12" xmlns="http://www.w3.org/2000/svg">
<path fill-rule="evenodd" clip-rule="evenodd" d="M6 12C2.68629 12 0 9.31371 0 6C0 2.68629 2.68629 0 6 0C9.31371 0 12 2.68629 12 6C12 9.31371 9.31371 12 6 12ZM6.13417 2.65323C5.03544 2.65323 4.33468 3.11607 3.7844 3.93867C3.7131 4.04524 3.73696 4.18897 3.83913 4.26645L4.53871 4.7969C4.64365 4.87647 4.79317 4.85754 4.8747 4.75411C5.23486 4.2973 5.48181 4.0324 6.03 4.0324C6.44188 4.0324 6.95133 4.29748 6.95133 4.69688C6.95133 4.99881 6.70208 5.15387 6.2954 5.38188C5.82113 5.64774 5.19355 5.97865 5.19355 6.80645V6.8871C5.19355 7.02071 5.30188 7.12903 5.43548 7.12903H6.56452C6.69812 7.12903 6.80645 7.02071 6.80645 6.8871V6.86022C6.80645 6.28639 8.48359 6.2625 8.48359 4.70968C8.48359 3.54028 7.27058 2.65323 6.13417 2.65323ZM6 7.65323C5.48861 7.65323 5.07258 8.06925 5.07258 8.58065C5.07258 9.09202 5.48861 9.50806 6 9.50806C6.51139 9.50806 6.92742 9.09202 6.92742 8.58065C6.92742 8.06925 6.51139 7.65323 6 7.65323Z" fill="#D8D8D8"/>
</svg>
