<svg width="20" height="20" viewBox="0 0 20 20" fill="#999999" xmlns="http://www.w3.org/2000/svg">
<path d="M10.8571 0C10.2888 0 9.74378 0.234126 9.34191 0.650873C8.94005 1.06762 8.71429 1.63285 8.71429 2.22222C8.71429 2.81159 8.94005 3.37682 9.34191 3.79357C9.74378 4.21032 10.2888 4.44444 10.8571 4.44444C11.4255 4.44444 11.9705 4.21032 12.3724 3.79357C12.7742 3.37682 13 2.81159 13 2.22222C13 1.63285 12.7742 1.06762 12.3724 0.650873C11.9705 0.234126 11.4255 0 10.8571 0ZM8 7.40741V8.88889H8.71429H9.42857V18.5185H8.71429H8V20H8.71429H9.42857H12.2857H13H13.7143V18.5185H13H12.2857V7.40741H11.5714H8.71429H8Z"/>
</svg>
