<svg width="16" height="16" viewBox="0 0 16 16" fill="none" xmlns="http://www.w3.org/2000/svg">
    <path d="M13.5037 2.27555L13.5778 1.78108L13.5778 1.78108L13.5037 2.27555ZM4.3405 9.57347L3.84198 9.53512L3.84198 9.53512L4.3405 9.57347ZM3.62037 14.3254C3.80008 14.5351 4.11573 14.5593 4.3254 14.3796L7.74205 11.4511C7.95171 11.2714 7.97599 10.9557 7.79628 10.746C7.61657 10.5364 7.30092 10.5121 7.09126 10.6918L4.05423 13.295L1.45107 10.2579C1.27136 10.0483 0.955706 10.024 0.746043 10.2037C0.53638 10.3834 0.512099 10.6991 0.691811 10.9087L3.62037 14.3254ZM15.0742 2.00553L13.5778 1.78108L13.4295 2.77002L14.9258 2.99447L15.0742 2.00553ZM3.84198 9.53512L3.50147 13.9617L4.49853 14.0383L4.83903 9.61182L3.84198 9.53512ZM13.5778 1.78108C8.6968 1.04893 4.22052 4.61402 3.84198 9.53512L4.83903 9.61182C5.17304 5.26967 9.1227 2.124 13.4295 2.77002L13.5778 1.78108Z" fill="black"/>
</svg>
