<svg width="26" height="26" viewBox="0 0 26 26" fill="none" xmlns="http://www.w3.org/2000/svg">
<g clip-path="url(#clip0_1_3)">
<g clip-path="url(#clip1_1_3)">
<path d="M19.5469 6.84375H18.4688C18.375 6.46875 18.2031 6.02604 17.9531 5.51562C17.7135 4.99479 17.4427 4.50521 17.1406 4.04688C16.8281 3.56771 16.4844 3.15104 16.1094 2.79688C15.7448 2.43229 15.3906 2.22396 15.0469 2.17188C14.724 2.13021 14.3177 2.09896 13.8281 2.07812C13.3385 2.05729 12.8854 2.04688 12.4688 2.04688H11.5625V19.7812C11.5625 20.125 11.6354 20.4427 11.7812 20.7344C11.9271 21.0156 12.1823 21.2344 12.5469 21.3906C12.7344 21.4635 13.125 21.5625 13.7188 21.6875C14.3229 21.8125 14.7917 21.8802 15.125 21.8906V23H4.65625V21.8906C4.94792 21.8698 5.39062 21.8281 5.98438 21.7656C6.58854 21.7031 7.00521 21.625 7.23438 21.5312C7.57812 21.3958 7.82812 21.2031 7.98438 20.9531C8.15104 20.6927 8.23438 20.349 8.23438 19.9219V2.04688H7.32812C7.00521 2.04688 6.60417 2.05729 6.125 2.07812C5.64583 2.08854 5.1875 2.11979 4.75 2.17188C4.40625 2.21354 4.04688 2.42188 3.67188 2.79688C3.30729 3.16146 2.96875 3.57812 2.65625 4.04688C2.34375 4.51562 2.06771 5.01562 1.82812 5.54688C1.58854 6.06771 1.42188 6.5 1.32812 6.84375H0.234375V0.828125H19.5469V6.84375Z" fill="#999999"/>
<path d="M25.606 13.4072H24.9658C24.9102 13.1846 24.8081 12.9217 24.6597 12.6187C24.5174 12.3094 24.3566 12.0187 24.1772 11.7466C23.9917 11.4621 23.7876 11.2147 23.5649 11.0044C23.3485 10.7879 23.1382 10.6642 22.9341 10.6333C22.7424 10.6086 22.5011 10.59 22.2104 10.5776C21.9198 10.5653 21.6507 10.5591 21.4033 10.5591H20.8652V21.0889C20.8652 21.293 20.9085 21.4816 20.9951 21.6548C21.0817 21.8218 21.2332 21.9517 21.4497 22.0444C21.561 22.0877 21.793 22.1465 22.1455 22.2207C22.5042 22.2949 22.7826 22.3351 22.9805 22.3413V23H16.7646V22.3413C16.9378 22.3289 17.2007 22.3042 17.5532 22.2671C17.9119 22.23 18.1593 22.1836 18.2954 22.1279C18.4995 22.0475 18.6479 21.9331 18.7407 21.7847C18.8397 21.63 18.8892 21.4259 18.8892 21.1724V10.5591H18.3511C18.1593 10.5591 17.9212 10.5653 17.6367 10.5776C17.3522 10.5838 17.0801 10.6024 16.8203 10.6333C16.6162 10.658 16.4028 10.7817 16.1802 11.0044C15.9637 11.2209 15.7627 11.4683 15.5771 11.7466C15.3916 12.0249 15.2277 12.3218 15.0854 12.6372C14.9432 12.9465 14.8442 13.2031 14.7886 13.4072H14.1392V9.83545H25.606V13.4072Z" fill="#999999"/>
</g>
</g>
<defs>
<clipPath id="clip0_1_3">
<rect width="26" height="26" fill="white"/>
</clipPath>
<clipPath id="clip1_1_3">
<rect width="26" height="26" fill="white"/>
</clipPath>
</defs>
</svg>
