<svg width="20" height="24" viewBox="0 0 20 24" fill="none" xmlns="http://www.w3.org/2000/svg">
<path d="M19.6575 6.93063H18.5794C18.4856 6.55563 18.3138 6.11292 18.0638 5.6025C17.8242 5.08167 17.5533 4.59208 17.2513 4.13375C16.9388 3.65458 16.595 3.23792 16.22 2.88375C15.8554 2.51917 15.5013 2.31083 15.1575 2.25875C14.8346 2.21708 14.4283 2.18583 13.9388 2.165C13.4492 2.14417 12.996 2.13375 12.5794 2.13375H11.6731V19.8681C11.6731 20.2119 11.746 20.5296 11.8919 20.8213C12.0377 21.1025 12.2929 21.3213 12.6575 21.4775C12.845 21.5504 13.2356 21.6494 13.8294 21.7744C14.4335 21.8994 14.9023 21.9671 15.2356 21.9775V23.0869H4.76688V21.9775C5.05854 21.9567 5.50125 21.915 6.095 21.8525C6.69917 21.79 7.11583 21.7119 7.345 21.6181C7.68875 21.4827 7.93875 21.29 8.095 21.04C8.26167 20.7796 8.345 20.4358 8.345 20.0088V2.13375H7.43875C7.11583 2.13375 6.71479 2.14417 6.23563 2.165C5.75646 2.17542 5.29813 2.20667 4.86063 2.25875C4.51688 2.30042 4.1575 2.50875 3.7825 2.88375C3.41792 3.24833 3.07938 3.665 2.76688 4.13375C2.45438 4.6025 2.17833 5.1025 1.93875 5.63375C1.69917 6.15458 1.5325 6.58688 1.43875 6.93063H0.345001V0.915001H19.6575V6.93063Z" fill="#999999"/>

</svg>
